<?xml version="1.0" encoding="utf-8"?>
<!-- Generator: Adobe Illustrator 25.0.0, SVG Export Plug-In . SVG Version: 6.00 Build 0)  -->
<svg version="1.1" id="Calque_1" xmlns="http://www.w3.org/2000/svg" xmlns:xlink="http://www.w3.org/1999/xlink" x="0px" y="0px"
	 viewBox="0 0 256 256" enable-background="new 0 0 256 256" xml:space="preserve">
<path fill="#FFFFFF" d="M0,151c0-1,0-2,0-3c1.133-1.198,2.239-2.423,3.401-3.591C43.484,104.119,83.57,63.832,123.665,23.556
	c4.265-4.284,4.83-4.268,9.199,0.115c12.94,12.986,25.857,25.996,38.798,38.982c0.987,0.991,2.092,1.865,3.948,3.506
	c0-5.962,0.167-10.91-0.048-15.842c-0.202-4.645,1.494-6.751,6.374-6.519c5.82,0.277,11.663,0.06,17.496,0.065
	c7.63,0.007,7.989,0.345,7.995,7.78c0.011,14.333-0.051,28.666,0.069,42.998c0.015,1.842,0.354,4.248,1.52,5.428
	c15.56,15.744,31.294,31.316,46.985,46.93c0,1.667,0,3.333,0,5c-2.587,0.404-5.168,1.096-7.763,1.157
	c-6.93,0.163-13.867,0.056-21.124,0.056c0,2.575,0,4.386,0,6.197c0,23.163,0.011,46.326-0.007,69.488
	c-0.005,6.342-0.542,6.859-6.817,6.862c-23.329,0.009-46.659,0.005-69.988,0.003c-7.588-0.001-7.969-0.36-7.975-7.78
	c-0.012-15.164,0.005-30.328-0.015-45.492c-0.002-1.749-0.167-3.498-0.25-5.121c-9.648,0-18.706,0-28.034,0
	c0,17.551,0.018,34.699-0.01,51.846c-0.01,5.954-0.63,6.541-6.627,6.544c-23.663,0.011-47.325,0.008-70.988,0.002
	c-6.57-0.002-7.185-0.579-7.19-7.075c-0.018-23.163-0.007-46.326-0.006-69.488c0-1.793,0-3.585,0-5.985
	c-7.793,0-15.085,0.174-22.359-0.102C4.54,153.024,2.281,151.737,0,151z"/>
</svg>
