<?xml version="1.0" encoding="utf-8"?>
<!-- Generator: Adobe Illustrator 25.0.0, SVG Export Plug-In . SVG Version: 6.00 Build 0)  -->
<svg version="1.1" xmlns="http://www.w3.org/2000/svg" xmlns:xlink="http://www.w3.org/1999/xlink" x="0px" y="0px"
	 viewBox="0 0 1226.541 416.53" enable-background="new 0 0 1226.541 416.53" xml:space="preserve">
<g id="FOND" display="none">
	<rect x="-1654.444" y="-1067.325" display="inline" fill="#232424" width="4535.43" height="2551.18"/>
</g>
<g id="Calque_3">
	<g>
		<rect x="0" y="385.011" fill="#232424" width="576.237" height="31.519"/>
		<g>
			<path fill="#232424" d="M170.239,295.119v-25.2c-19.6,19.6-38.08,28-71.68,28c-33.04,0-57.12-8.4-74.48-25.76
				C8.4,255.919,0,232.399,0,206.639c0-46.48,31.919-84.56,99.679-84.56h68.88v-14.56c0-31.92-15.68-45.92-54.32-45.92
				c-28,0-40.88,6.72-56,24.08L11.76,40.32C40.319,8.96,68.319,0,117.039,0c81.76,0,124.32,34.72,124.32,103.04v192.079H170.239z
				 M168.559,171.919h-57.68c-26.32,0-40.88,12.32-40.88,33.04c0,20.16,13.44,33.6,42,33.6c20.16,0,33.04-1.68,45.92-14
				c7.84-7.28,10.64-19.04,10.64-36.96V171.919z"/>
			<path fill="#232424" d="M503.438,295.119V118.719c0-39.76-25.2-53.2-48.16-53.2s-48.72,13.44-48.72,53.2v176.399h-72.8V3.36
				h71.12v26.88C423.918,10.08,450.798,0,477.678,0c29.119,0,52.64,9.52,68.879,25.76c23.521,23.52,29.681,50.96,29.681,82.88
				v186.479H503.438z"/>
		</g>
		<g>
			<path fill="#232424" d="M1056.302,121.411v25.2c19.6-19.6,38.08-28,71.68-28c33.04,0,57.12,8.4,74.48,25.76
				c15.68,16.24,24.08,39.76,24.08,65.52c0,46.48-31.919,84.56-99.679,84.56h-68.88v14.56c0,31.92,15.68,45.92,54.32,45.92
				c28,0,40.88-6.72,56-24.08l46.479,45.36c-28.56,31.36-56.56,40.32-105.279,40.32c-81.76,0-124.32-34.72-124.32-103.04V121.411
				H1056.302z M1057.982,244.611h57.68c26.32,0,40.88-12.32,40.88-33.04c0-20.16-13.44-33.6-42-33.6c-20.16,0-33.04,1.68-45.92,14
				c-7.84,7.28-10.64,19.04-10.64,36.96V244.611z"/>
			<path fill="#232424" d="M723.104,121.411v176.399c0,39.76,25.2,53.2,48.16,53.2s48.72-13.44,48.72-53.2V121.411h72.8V413.17
				h-71.12v-26.88c-19.04,20.16-45.92,30.24-72.8,30.24c-29.119,0-52.64-9.52-68.879-25.76c-23.521-23.52-29.681-50.96-29.681-82.88
				V121.411H723.104z"/>
		</g>
		<rect x="650.304" y="0" fill="#232424" width="576.237" height="31.519"/>
	</g>
</g>
</svg>
